
<svg xmlns="http://www.w3.org/2000/svg" version="1.1" xmlns:xlink="http://www.w3.org/1999/xlink" preserveAspectRatio="none" x="0px" y="0px" width="100px" height="100px" viewBox="0 0 100 100">
<defs>
<g id="Layer4_0_FILL">
<path fill="#FFFFFF" stroke="none" d="
M 100 20
Q 100 11.75 94.15 5.9 88.25 0 80 0
L 20 0
Q 11.7 0 5.85 5.9 0 11.75 0 20
L 0 80
Q 0 88.3 5.85 94.15 11.7 100 20 100
L 80 100
Q 88.25 100 94.15 94.15 100 88.3 100 80
L 100 20 Z"/>
</g>

<g id="Layer4_1_FILL">
<path fill="#462763" stroke="none" d="
M 91.65 22.25
Q 91.65 16.55 87.55 12.5 83.5 8.4 77.75 8.4
L 22.2 8.4
Q 16.45 8.4 12.4 12.45 8.35 16.5 8.35 22.25
L 8.35 77.8
Q 8.35 83.55 12.4 87.6 16.45 91.7 22.2 91.7
L 77.75 91.7
Q 83.5 91.7 87.55 87.6 91.65 83.55 91.65 77.8
L 91.65 22.25
M 81.15 13.6
L 81.15 26.5 69.5 26.5
Q 67.1 26.45 66.25 27.8 65.6 28.85 65.6 31.65
L 65.6 38.1 81.2 38.1 79.15 50 79.15 50.05 65.6 50.05 65.6 86.45 50 86.45 50 50.05 42.45 50.05 42.45 38.1 50 38.1 50 30.35
Q 50 22.1 53.8 18.05 57.95 13.6 66.9 13.6
L 81.15 13.6 Z"/>
</g>
</defs>

<g transform="matrix( 1, 0, 0, 1, 0,0) ">
<use xlink:href="#Layer4_0_FILL"/>
</g>

<g transform="matrix( 1, 0, 0, 1, 0,0) ">
<use xlink:href="#Layer4_1_FILL"/>
</g>
</svg>
