
<svg xmlns="http://www.w3.org/2000/svg" version="1.1" xmlns:xlink="http://www.w3.org/1999/xlink" preserveAspectRatio="none" x="0px" y="0px" width="80px" height="80px" viewBox="0 0 80 80">
<defs>
<g id="Layer0_0_FILL">
<path fill="#FFFFFF" stroke="none" d="
M 69.4 10.3
Q 68.2 10.25 67.55 10.95
L 66.7 12.6
Q 66.25 13.5 65.05 16.5 64.6 17.5 63.45 19.45 62.4 21.35 62 22.4
L 60.9 25.8
Q 60.25 27.8 59.6 29.15
L 58.8 30.55
Q 58.3 31.5 58.1 32.05 57.55 33.95 56.95 35.4 56.45 36.85 55.25 38.15
L 52.5 40.4
Q 51.7 39.65 51.1 38.4
L 50.15 36.2
Q 48.85 33.1 47 30.45 45.85 28.7 44.9 27.85 43.5 26.55 42 26.45 40.95 26.4 40.3 26.95
L 40.15 27.15
Q 39.2 27.45 38.25 28.3 37.35 29.2 36.1 30.8 34.2 33.5 32.85 36.4
L 31.8 38.55
Q 31.2 39.7 30.4 40.45
L 29.05 39.25
Q 27.95 38.3 27.7 38.05 26.65 36.9 26.1 35.3 25.4 33.15 25.1 31.9 24.85 31.1 24.45 30.4
L 23.7 28.95
Q 23.05 27.6 22.55 25.6
L 21.55 22.15
Q 21.2 21 20.2 19.1
L 18.75 16.1
Q 17.9 13.5 17.25 12.15 16.55 10.65 16.35 10.45 15.75 9.65 14.6 9.8 12.35 10 12.7 13.1
L 15.55 23.55
Q 15.75 24.35 16.35 26 16.75 27.5 16.2 28.4 15.6 28.15 15.4 27.55 14.75 25.05 14.35 24.05
L 12.4 18.2
Q 11.15 14.5 10.1 12.1 8.55 8.75 6.45 9.7 5.4 10.2 5.35 11.3 5.35 12.1 5.65 13.5 6.05 15.75 6.8 18.4 7.05 19.4 7.25 21.45 7.55 22.9 8.45 25.7 9.3 28.75 9.7 30.9
L 9.3 31.3 8.45 31.95
Q 6.4 33.4 5.7 34.8 5.2 35.8 5.35 37.2
L 5.5 39.15 4.15 41.55
Q 3.4 42.85 3.35 43.7 3.2 45.3 3.25 46 3.4 47.15 3.85 48.15
L 7.7 55.7
Q 9 57.8 9.45 60.1 9.9 62.2 9.75 64.35 9.75 65.35 9.55 69.35
L 9.25 73.35 26.7 73.35 27.6 66.7
Q 28.25 62.05 28.7 59.75
L 29.5 56.05
Q 30.35 53.3 32.35 51.35
L 34.3 49.25
Q 35.4 48 35.9 46.85 36.55 45.5 37.05 43.45
L 38.05 40
Q 38.25 39.35 39.25 37.45 40.3 35.5 40.55 34.9 40.95 33.8 41.7 32.45
L 42.55 34.45
Q 43.05 35.7 43.65 36.9 44.4 38.3 44.75 39.4 44.95 39.95 45.6 42.65 46.05 44.7 46.45 45.9 47.5 48.75 49.8 50.85 50.6 51.65 51.55 52.95 52.4 54.3 52.6 55.4
L 53.35 59.15
Q 53.9 62.5 54.15 66.05
L 54.6 73.35 73.5 73.35
Q 72.8 69.9 72.65 68.8 72.15 66.2 72.25 64 72.35 61.6 72.95 59.6 73.2 58.7 73.85 57.65
L 78.05 50.25
Q 78.75 49.15 79.05 48.5 79.8 46.4 79.4 44.2
L 79.35 44.25
Q 79.05 43.25 78.5 42.15
L 78 41.25
Q 78.05 37.6 77.9 36.55 77.45 33.75 75.55 32.8 74.75 32.4 73.35 32.25 73.6 31.05 74.55 27.65 75.55 24.85 75.8 23.4 76.05 21.35 76.35 20.35 77.1 17.7 77.6 15.45
L 77.9 13.25
Q 77.85 12.1 76.8 11.6 74.65 10.5 73 13.85 71.85 16.2 70.6 19.85
L 67.4 29.2
Q 67.25 29.75 66.45 30.05 66.4 28.7 67.2 26.05
L 71.2 13.6
Q 71.75 10.45 69.4 10.3 Z"/>
</g>
</defs>

<g transform="matrix( 1, 0, 0, 1, -1.4,-1.4) ">
<use xlink:href="#Layer0_0_FILL"/>
</g>
</svg>
