
<svg xmlns="http://www.w3.org/2000/svg" version="1.1" xmlns:xlink="http://www.w3.org/1999/xlink" preserveAspectRatio="none" x="0px" y="0px" width="100px" height="100px" viewBox="0 0 100 100">
<defs>
<g id="Layer3_0_FILL">
<path fill="#FFFFFF" stroke="none" d="
M 100 20
Q 100 11.75 94.15 5.9 88.25 0 80 0
L 20 0
Q 11.7 0 5.85 5.9 0 11.75 0 20
L 0 80
Q 0 88.3 5.85 94.15 11.7 100 20 100
L 80 100
Q 88.25 100 94.15 94.15 100 88.3 100 80
L 100 20 Z"/>
</g>

<g id="Layer3_1_FILL">
<path fill="#462763" stroke="none" d="
M 88.9 11.1
Q 86.25 8.4 82.45 8.4
L 17.5 8.4
Q 13.7 8.4 11.05 11.1 8.35 13.75 8.35 17.55
L 8.35 82.5
Q 8.35 86.3 11.05 89 13.7 91.7 17.5 91.7
L 82.45 91.7
Q 86.25 91.7 88.9 89 91.6 86.3 91.6 82.5
L 91.6 17.55
Q 91.6 13.75 88.9 11.1
M 82.05 21.1
L 82.05 30.6
Q 82.05 31.95 81.1 32.95 80.15 33.9 78.75 33.9
L 69.3 33.9
Q 67.9 33.9 66.95 32.95 65.95 31.95 65.95 30.6
L 65.95 21.1
Q 65.95 19.75 66.95 18.8 67.9 17.8 69.3 17.8
L 78.75 17.8
Q 80.15 17.8 81.1 18.8 82.05 19.75 82.05 21.1
M 81.85 43.7
L 81.85 78.6
Q 81.85 80 80.9 80.95 79.9 81.95 78.55 81.95
L 21.35 81.95
Q 20 81.95 19.05 80.95 18.05 80 18.05 78.6
L 18.05 43.7 25.25 43.7
Q 24.5 46.7 24.5 49.95 24.5 60.55 32 68 39.5 75.5 50.05 75.5 60.65 75.5 68.1 68 75.6 60.55 75.6 49.95 75.6 46.7 74.85 43.7
L 81.85 43.7
M 49.95 34.05
Q 56.55 34.05 61.2 38.7 65.85 43.35 65.85 50 65.85 56.6 61.2 61.3 56.55 65.95 49.95 65.95 43.35 65.95 38.7 61.3 34 56.6 34 50 34 43.35 38.7 38.7 43.35 34.05 49.95 34.05 Z"/>
</g>
</defs>

<g transform="matrix( 1, 0, 0, 1, 0,0) ">
<use xlink:href="#Layer3_0_FILL"/>
</g>

<g transform="matrix( 1, 0, 0, 1, 0,0) ">
<use xlink:href="#Layer3_1_FILL"/>
</g>
</svg>
