
<svg xmlns="http://www.w3.org/2000/svg" version="1.1" xmlns:xlink="http://www.w3.org/1999/xlink" preserveAspectRatio="none" x="0px" y="0px" width="100px" height="100px" viewBox="0 0 100 100">
<defs>
<g id="tiktok_0_Layer0_0_FILL">
<path fill="#FFFFFF" stroke="none" d="
M 100 20
Q 100 11.9 94.15 5.95 88.2 0 80 0
L 20 0
Q 11.75 0 5.8 5.95 0 11.75 0 20
L 0 80
Q 0 88.35 5.8 94.2 11.75 100 20 100
L 80 100
Q 88.2 100 94.15 94.2 100 88.2 100 80
L 100 20
M 81.65 8.45
Q 83.7 8.45 85.55 9.25 87.25 10 88.6 11.3 90 12.75 90.8 14.45 91.55 16.25 91.55 18.3
L 91.55 81.65
Q 91.55 83.7 90.8 85.5 90 87.25 88.6 88.6 87.25 90 85.55 90.7 83.7 91.55 81.65 91.55
L 18.3 91.55
Q 16.25 91.55 14.5 90.7 12.75 90 11.3 88.6 10 87.25 9.25 85.5 8.45 83.7 8.45 81.65
L 8.45 18.3
Q 8.45 16.25 9.25 14.45 10 12.75 11.3 11.3 12.75 10 14.5 9.25 16.25 8.45 18.3 8.45
L 81.65 8.45
M 60.15 22.2
L 52.1 22.2 52.05 61
Q 52.05 62.7 51.35 64.3 50.6 65.85 49.4 67 48.15 68.2 46.5 68.9 44.9 69.5 43.15 69.5 41.35 69.5 39.7 68.85 38.25 68.2 37 66.95 35.8 65.8 35.2 64.25 34.5 62.6 34.5 60.9 34.5 59.2 35.2 57.45 35.8 56 37 54.8 38.25 53.6 39.7 53 41.35 52.25 43.15 52.25 43.35 52.25 43.65 52.3 43.8 52.35 44.15 52.35
L 44.15 44.05
Q 43.8 44.05 43.65 44.05 43.35 44 43.15 44 39.65 44 36.5 45.35 33.55 46.6 31.15 48.95 28.85 51.3 27.6 54.35 26.2 57.4 26.2 60.9 26.2 64.3 27.6 67.4 28.85 70.45 31.15 72.8 33.55 75.15 36.5 76.45 39.65 77.75 43.15 77.75 46.5 77.75 49.65 76.45 52.7 75.15 55.1 72.8 57.3 70.45 58.65 67.4 60 64.3 60 60.9
L 60 38.1
Q 61 39.6 62.3 40.85 63.75 42.05 65.35 43 66.95 43.85 68.75 44.3 70.55 44.75 72.35 44.75 73.05 44.75 73.8 44.65
L 73.8 35.45
Q 71.1 35.3 68.75 34.15 66.35 33.1 64.55 31.3 62.7 29.5 61.55 27.2 60.4 24.9 60.15 22.2 Z"/>

<path fill="#462763" stroke="none" d="
M 85.55 9.25
Q 83.7 8.45 81.65 8.45
L 18.3 8.45
Q 16.25 8.45 14.5 9.25 12.75 10 11.3 11.3 10 12.75 9.25 14.45 8.45 16.25 8.45 18.3
L 8.45 81.65
Q 8.45 83.7 9.25 85.5 10 87.25 11.3 88.6 12.75 90 14.5 90.7 16.25 91.55 18.3 91.55
L 81.65 91.55
Q 83.7 91.55 85.55 90.7 87.25 90 88.6 88.6 90 87.25 90.8 85.5 91.55 83.7 91.55 81.65
L 91.55 18.3
Q 91.55 16.25 90.8 14.45 90 12.75 88.6 11.3 87.25 10 85.55 9.25
M 52.1 22.2
L 60.15 22.2
Q 60.4 24.9 61.55 27.2 62.7 29.5 64.55 31.3 66.35 33.1 68.75 34.15 71.1 35.3 73.8 35.45
L 73.8 44.65
Q 73.05 44.75 72.35 44.75 70.55 44.75 68.75 44.3 66.95 43.85 65.35 43 63.75 42.05 62.3 40.85 61 39.6 60 38.1
L 60 60.9
Q 60 64.3 58.65 67.4 57.3 70.45 55.1 72.8 52.7 75.15 49.65 76.45 46.5 77.75 43.15 77.75 39.65 77.75 36.5 76.45 33.55 75.15 31.15 72.8 28.85 70.45 27.6 67.4 26.2 64.3 26.2 60.9 26.2 57.4 27.6 54.35 28.85 51.3 31.15 48.95 33.55 46.6 36.5 45.35 39.65 44 43.15 44 43.35 44 43.65 44.05 43.8 44.05 44.15 44.05
L 44.15 52.35
Q 43.8 52.35 43.65 52.3 43.35 52.25 43.15 52.25 41.35 52.25 39.7 53 38.25 53.6 37 54.8 35.8 56 35.2 57.45 34.5 59.2 34.5 60.9 34.5 62.6 35.2 64.25 35.8 65.8 37 66.95 38.25 68.2 39.7 68.85 41.35 69.5 43.15 69.5 44.9 69.5 46.5 68.9 48.15 68.2 49.4 67 50.6 65.85 51.35 64.3 52.05 62.7 52.05 61
L 52.1 22.2 Z"/>
</g>
</defs>

<g transform="matrix( 1, 0, 0, 1, 0,0) ">
<g transform="matrix( 1, 0, 0, 1, 0,0) ">
<use xlink:href="#tiktok_0_Layer0_0_FILL"/>
</g>
</g>
</svg>
