
<svg xmlns="http://www.w3.org/2000/svg" version="1.1" xmlns:xlink="http://www.w3.org/1999/xlink" preserveAspectRatio="none" x="0px" y="0px" width="100px" height="100px" viewBox="0 0 100 100">
<defs>
<g id="Layer1_0_FILL">
<path fill="#FFFFFF" stroke="none" d="
M 100 20
Q 100 12.05 94.15 5.95 88.15 0 80 0
L 20 0
Q 11.75 0 5.8 5.95 0 11.75 0 20
L 0 80
Q 0 88.4 5.8 94.2 11.7 100 20 100
L 80 100
Q 88.2 100 94.15 94.2 100 88.1 100 80
L 100 20
M 81.65 8.45
Q 83.55 8.45 85.55 9.25 87.35 10.05 88.55 11.35 89.95 12.75 90.8 14.45 91.55 16.35 91.55 18.3
L 91.55 81.7
Q 91.55 83.7 90.8 85.5 89.95 87.35 88.55 88.6 87.3 90 85.55 90.7 83.7 91.6 81.65 91.6
L 18.25 91.6
Q 16.25 91.6 14.5 90.7 12.75 90.05 11.3 88.6 10.05 87.4 9.25 85.5 8.4 83.65 8.4 81.7
L 8.4 18.3
Q 8.4 16.4 9.25 14.45 10.05 12.65 11.3 11.35 12.75 10 14.5 9.25 16.35 8.45 18.25 8.45
L 81.65 8.45 Z"/>

<path fill="#462763" stroke="none" d="
M 85.55 9.25
Q 83.55 8.45 81.65 8.45
L 18.25 8.45
Q 16.35 8.45 14.5 9.25 12.75 10 11.3 11.35 10.05 12.65 9.25 14.45 8.4 16.4 8.4 18.3
L 8.4 81.7
Q 8.4 83.65 9.25 85.5 10.05 87.4 11.3 88.6 12.75 90.05 14.5 90.7 16.25 91.6 18.25 91.6
L 81.65 91.6
Q 83.7 91.6 85.55 90.7 87.3 90 88.55 88.6 89.95 87.35 90.8 85.5 91.55 83.7 91.55 81.7
L 91.55 18.3
Q 91.55 16.35 90.8 14.45 89.95 12.75 88.55 11.35 87.35 10.05 85.55 9.25 Z"/>
</g>

<g id="Layer0_0_FILL">
<path fill="#FFFFFF" stroke="none" d="
M 74.25 19.15
L 53.55 41.45 36.85 19.15 17.2 19.15 42.7 53.2 17 80.95 22.8 80.95 45.25 56.65 63.4 80.95 83.05 80.95 56.1 44.95 80 19.15 74.25 19.15
M 25.65 23.35
L 34.7 23.35 74.6 76.65 65.55 76.65 25.65 23.35 Z"/>
</g>
</defs>

<g transform="matrix( 1, 0, 0, 1, 0,0) ">
<use xlink:href="#Layer1_0_FILL"/>
</g>

<g transform="matrix( 1, 0, 0, 1, 0,0) ">
<use xlink:href="#Layer0_0_FILL"/>
</g>
</svg>
