<?xml version="1.0" encoding="UTF-8"?><svg id="Layer_2" xmlns="http://www.w3.org/2000/svg" viewBox="0 0 353.6268 225.4741"><g id="Components"><g id="cf1113f4-668d-4a1e-b217-ff0a71d463cb_1"><path d="M141.4048,2.8875v27.6442c0,27.7737,10.1216,46.9015,18.6068,58.0593,7.7487,10.1818,15.5873,15.7646,17.9455,17.3238,2.3731-1.4743,10.2355-6.8037,17.9904-16.8395,8.509-11.0118,18.6219-30.1319,18.5232-58.6898V2.8875h-73.0658Z" style="fill:#492365;"/><path d="M41.4509,177.6888h-1.237c-9.9133-21.5158-11.1031-24.4807-12.1254-27.2296h-.0622c-1.02,2.8028-2.3109,5.775-12.5549,27.2296h-1.2348l-7.871-26.3157c-4.0997-13.6374-4.5313-15.4112-6.3654-15.6872v-.8064c1.4046,0,3.4555.0611,6.0347.0611,2.4806,0,4.4779-.0611,7.012-.0611v.8064c-2.6416.276-2.1582,2.1035.4295,11.2179,1.9414,6.7349,2.6953,9.6525,3.3933,12.4551h.1073c1.0824-2.8026,2.1046-5.2283,5.122-12.0856,1.8363-3.9323,3.9923-8.1866,5.6591-11.6421h1.1295c1.6731,3.4016,3.6704,7.449,5.7213,11.5959,2.794,6.5728,3.8764,9.1069,4.9523,11.8633h.1698c.5905-2.8026,1.2885-5.4517,3.2235-11.9717,2.588-9.3829,3.0797-11.1567.4917-11.4327v-.8064c1.7741.0611,3.8786.0611,6.4666.0611s4.0997,0,5.6588-.0611v.8064c-1.6665.3297-2.2033,2.0498-6.2517,15.6335l-7.8688,26.3693Z" style="fill:#fff;"/><path d="M60.4702,151.8112c0-14.0218,0-15.9031-2.1585-16.1253v-.8064c1.8899,0,6.4127.0611,11.4811.0611,4.583,0,9.4302,0,12.832-.0611-.1075,2.6414-.1632,5.3442-.2171,9.168h-.8139c-.3222-2.0498-2.2636-2.5877-5.9274-2.5877h-7.1171v10.8882h6.0969c3.8228,0,4.8452-.1148,5.2747-1.2896h.7602c-.0537,1.6129-.0537,3.0722-.0537,4.4155,0,1.6203,0,3.1248.0537,4.9063h-.7602c-.3222-1.2898-1.4519-1.5044-5.1671-1.5044h-6.2045v9.8597c0,1.1286.1137,1.3969,1.0824,1.513,2.6953.0537,5.7125.0537,8.1932,0,2.6414-.0622,4.2006-.4458,4.5828-2.2733h.799c-.1073,3.8925-.1524,6.3654-.1524,9.0607-3.724-.0537-8.0858-.0537-12.0804-.0537-5.8115,0-10.9335,0-12.7696.0537v-.8064c2.2658-.2149,2.2658-2.1035,2.2658-17.2002v-7.218Z" style="fill:#fff;"/><path d="M116.411,165.0727c0,4.2532-2.2121,7.5477-5.1759,9.4365-2.6414,1.7202-6.0883,2.5728-12.1789,2.5728-1.8277,0-3.6081-.0998-5.659-.0998-1.1834,0-2.8026-.0537-4.6926-.0537v-.8064c2.3194-.1075,2.3194-2.05,2.3194-17.0929v-7.218c0-14.0218,0-15.7419-2.1024-15.9568v-.8601c1.2434,0,3.6165-.0537,5.0123-.0537,1.5678-.0611,4.0484-.1687,6.2517-.1687,2.5943,0,5.236.3222,7.171.9826,3.1807.9599,7.3339,3.8701,7.3339,10.1282,0,4.5153-3.0797,8.1857-6.8422,9.1069v.0537c4.5701.7528,8.5626,4.6314,8.5626,9.9756v.0539ZM106.766,146.6355c0-3.3407-2.3731-5.3444-5.8737-5.3444-.8612,0-1.7824.1148-2.3194.1687v10.7734c.5907,0,1.1297.0537,1.5119.0537.9148,0,1.9887-.0998,3.011-.4757,1.7266-.5993,3.6702-2.2196,3.6702-5.1295v-.0462ZM108.1642,164.3736c0-2.9713-2.0426-4.6989-4.0398-5.3444-.9126-.2608-2.3192-.4768-3.5006-.4768-.539,0-1.4602.0462-2.0509.0998v10.4589c0,.8064.1075.9137.4295,1.0749.6444.1159,1.5055.1159,2.1585.1159,1.398,0,2.9099-.3233,3.986-.9214,1.4497-.7525,3.0175-2.3117,3.0175-4.9608v-.0462Z" style="fill:#fff;"/><path d="M123.1996,151.8112c0-14.0218,0-15.9031-2.1585-16.1253v-.8064c1.8899,0,6.4127.0611,11.4789.0611,4.5852,0,9.4301,0,12.832-.0611-.1073,2.6414-.161,5.3442-.2147,9.168h-.8141c-.322-2.0498-2.2655-2.5877-5.9274-2.5877h-7.1107v10.8882h6.0886c3.8248,0,4.8535-.1148,5.283-1.2896h.7539c-.0622,1.6129-.0622,3.0722-.0622,4.4155,0,1.6203,0,3.1248.0622,4.9063h-.7539c-.3307-1.2898-1.4583-1.5044-5.1757-1.5044h-6.1959v9.8597c0,1.1286.1075,1.3969,1.0738,1.513,2.6953.0537,5.7127.0537,8.1931,0,2.6416-.0622,4.2094-.4458,4.5852-2.2733h.8053c-.1075,3.8925-.1612,6.3654-.1612,9.0607-3.7238-.0537-8.0856-.0537-12.0696-.0537-5.8221,0-10.9441,0-12.7782.0537v-.8064c2.2658-.2149,2.2658-2.1035,2.2658-17.2002v-7.218Z" style="fill:#fff;"/><path d="M154.6125,151.8112c0-14.0218,0-15.9031-2.2656-16.0105v-.8064c1.4066,0,3.3416-.0537,5.5601-.1148,1.6214-.0462,4.2544-.1075,6.0283-.1075,3.026,0,5.6676.3758,7.931,1.1361,3.7713,1.2898,7.65,4.799,7.65,11.4802,0,4.7988-2.427,7.9783-4.4693,9.5364-1.0285.8687-2.2656,1.6278-3.2943,2.0047v.161c1.7266,2.2583,3.2407,4.3618,9.7523,13.2004,1.5656,2.1035,3.1333,3.7238,4.3145,3.9387v.7528h-8.7838c-.9685,0-1.8275-.1073-2.4268-.6455-3.2857-4.9061-6.7886-10.243-10.5038-15.6872-.5392,0-1.237-.0462-1.7826-.0462v2.3109c0,11.2117.0537,13.1003,2.1046,13.3152v.8064c-1.297-.0537-3.6638-.0537-5.8823-.0537-2.5255,0-4.7377,0-6.1356.0537v-.8064c2.2033-.2149,2.2033-2.1035,2.2033-17.2002v-7.218ZM171.3768,147.7102c0-3.8237-2.474-6.3043-6.6813-6.3043-.9751,0-1.935.1075-2.3731.1612v13.0467c.5907.0537,1.1897.0537,1.7826.0537,1.6192,0,3.1248-.4295,4.2609-1.1823,1.559-.9212,3.0109-2.8101,3.0109-5.7211v-.0539Z" style="fill:#fff;"/><path d="M225.4813,165.7168c0,6.7349-5.3367,11.8569-14.0066,11.8569-3.2945,0-6.6876-.6989-8.569-1.5592.0987-2.7489.2063-5.2294.3222-9.4838h.8053c.378,1.4444,1.1834,2.4732,2.1519,3.1184,1.2434.7066,2.9702,1.0288,4.7528,1.0288,3.4403,0,5.9745-1.7279,5.9745-4.8526,0-1.9434-1.0759-3.5015-3.0731-5.0682-1.396-1.1286-2.9638-2.3194-4.5766-3.6167-3.8764-2.9647-5.8737-6.2506-5.8737-10.6124,0-6.4653,4.9074-11.8633,13.6374-11.8633,2.3109,0,5.0684.3833,6.6276.9214-.1612,3.0709-.2234,5.6588-.2685,9.3215h-.8139c-.2621-1.1897-.9685-1.9962-1.8277-2.5803-.8075-.4908-1.9436-.8139-3.3416-.8139-3.3482,0-5.6588,1.8275-5.6588,4.6387,0,1.773.8073,3.0711,2.2033,4.307,1.2993,1.1823,3.0797,2.4806,5.3906,4.3156,3.7711,2.9638,6.1442,6.2045,6.1442,10.8884v.0537Z" style="fill:#fff;"/><path d="M240.7766,141.4598h-7.2783c-2.7039,0-3.986.6989-4.4691,2.8026h-.8139c0-3.5554-.0622-6.7415-.0622-9.3829,4.4304.0611,9.4387.0611,13.5835.0611h6.0435c4.6389,0,9.5911,0,13.5835-.0611v9.3829h-.8676c-.4832-2.211-1.7202-2.8026-4.3682-2.8026h-7.2719v17.5694c0,15.1504,0,17.1391,2.588,17.2002v.8064c-1.7826-.0537-4.1469-.0537-6.5739-.0537-2.5877,0-5.0682,0-6.5801.0537v-.8064c2.4868-.276,2.4868-2.1035,2.4868-17.2002v-17.5694Z" style="fill:#fff;"/><path d="M269.3592,168.4669c-2.3194,5.7127-2.966,7.5477-.8075,7.7014v.8676c-1.9973,0-4.2072-.0537-6.3569-.0537-2.8651,0-4.7462.0537-5.9296.0537v-.8676c1.6665-.1537,2.5814-1.9887,9.0458-17.1927l10.566-24.7415h1.2909l10.3514,24.7952c6.3032,15.0967,7.1708,16.9853,8.8373,17.1391v.8676c-1.2349-.0537-3.116-.0537-5.9274-.0537-2.3645,0-4.7913,0-7.0032.0537v-.8676c2.1046-.1537,1.4044-1.9887-.8075-7.7014h-13.2594ZM280.3549,162.2162l-.0537-.1621c-3.0733-8.2543-3.7777-10.358-4.1472-11.7023h-.0622c-.3758,1.2896-1.1812,3.3944-4.3682,11.7023l-.0473.1621h8.6785Z" style="fill:#fff;"/><path d="M303.9894,141.4598h-7.2783c-2.6953,0-3.986.6989-4.4691,2.8026h-.8142c0-3.5554-.0537-6.7415-.0537-9.3829,4.422.0611,9.4365.0611,13.5837.0611h6.0347c4.6389,0,9.5999,0,13.5837-.0611v9.3829h-.859c-.4919-2.211-1.729-2.8026-4.3618-2.8026h-7.2805v17.5694c0,15.1504,0,17.1391,2.5814,17.2002v.8064c-1.7738-.0537-4.1469-.0537-6.5737-.0537-2.588,0-5.0598,0-6.5739.0537v-.8064c2.4806-.276,2.4806-2.1035,2.4806-17.2002v-17.5694Z" style="fill:#fff;"/><path d="M330.8817,151.8112c0-14.0218,0-15.9031-2.1585-16.1253v-.8064c1.8899,0,6.4193.0611,11.4725.0611,4.5916,0,9.4365,0,12.8384-.0611-.1073,2.6414-.1676,5.3442-.2212,9.168h-.8075c-.322-2.0498-2.2656-2.5877-5.9274-2.5877h-7.1193v10.8882h6.0905c3.8314,0,4.8515-.1148,5.2833-1.2896h.7602c-.0537,1.6129-.0537,3.0722-.0537,4.4155,0,1.6203,0,3.1248.0537,4.9063h-.7602c-.3158-1.2898-1.4519-1.5044-5.1693-1.5044h-6.2045v9.8597c0,1.1286.1161,1.3969,1.0824,1.513,2.6953.0537,5.7147.0537,8.1953,0,2.6414-.0622,4.1984-.4458,4.5764-2.2733h.8139c-.1073,3.8925-.1632,6.3654-.1632,9.0607-3.7238-.0537-8.0922-.0537-12.0782-.0537-5.82,0-10.9421,0-12.7782.0537v-.8064c2.2744-.2149,2.2744-2.1035,2.2744-17.2002v-7.218Z" style="fill:#fff;"/><path d="M15.3424,205.9008c0-10.2817,0-11.5262-1.6364-11.6487v-.5144c.9599,0,2.1969.0376,3.6853.0376,1.3894,0,2.5963-.0376,3.5178-.0376v.5144c-1.7589.1225-1.7589,1.367-1.7589,11.6487v6.0433c0,3.5631.6378,5.6439,1.9973,7.3256,1.3595,1.7514,3.724,2.6726,6.2432,2.6726,2.4417,0,4.6453-.8374,6.0798-2.5578,1.484-1.6815,2.1197-4.0847,2.1197-7.6014v-5.8823c0-10.2817.0473-11.5262-1.7569-11.6874v-.4757c1.0052,0,2.2035.0376,3.4857.0376,1.4433,0,2.5943-.0376,3.432-.0376v.4757c-1.5592.1612-1.5592,1.4057-1.5592,11.6874v5.921c0,4.6453-.9986,7.6014-2.88,9.806-1.8427,2.1958-5.0447,3.8463-8.9598,3.8463-4.1621,0-7.4866-1.4895-9.4838-4.2459-1.7655-2.2044-2.5257-4.9224-2.5257-9.0458v-6.2816Z" style="fill:#fff;"/><path d="M81.9869,225.3903h-.599c-7.6412-8.9233-12.1641-14.2065-14.9667-17.4859-1.8427-2.1187-3.1635-3.6466-5.1671-6.2119h-.0387v10.5662c0,10.8422,0,12.1254,1.7202,12.2477v.5219c-1.0822-.0374-2.2807-.0374-3.5628-.0374-1.4367,0-2.3194,0-3.2407.0374v-.4832c1.7202-.161,1.7202-1.4442,1.7202-12.4012v-18.6908h.6056c7.8024,9.1608,12.4026,14.6059,15.2051,17.8918,1.7589,2.0349,3.0023,3.5252,4.8836,5.9133h.0772v-11.4338c0-10.1752,0-11.4499-1.7589-11.6111v-.4757c.9214,0,2.1585.0376,3.3546.0376,1.3681,0,2.4054-.0376,3.2879-.0376v.4757c-1.5205.1612-1.5205,1.4358-1.5205,11.7186v19.4583Z" style="fill:#fff;"/><path d="M107.1031,212.1439c0,11.0032,0,12.1628,1.7976,12.3625v.5219c-.9986,0-2.2807-.0374-3.6787-.0374-1.5592,0-2.7254.0374-3.6016.0374v-.5219c1.7202-.1997,1.7202-1.3593,1.7202-12.324v-6.2816c0-10.2817,0-11.4413-1.6817-11.61v-.5531c.8827,0,2.0811.0376,3.5244.0376,1.3208,0,2.6801-.0376,3.5263-.0376v.5144c-1.6065.2074-1.6065,1.3283-1.6065,11.6487v6.2432Z" style="fill:#fff;"/><path d="M138.9479,225.4279h-.5993l-8.0383-19.5271c-4.2481-10.3204-4.8451-11.5262-6.168-11.6487v-.5144c.6378,0,1.9199.0376,3.4791.0376s3.0023-.0376,3.9237-.0376v.5144c-1.9652.1225-1.4347,1.3283,2.3194,10.5662,2.5277,6.3654,3.7238,9.3292,4.8836,12.8008h.0838c1.1983-3.4329,2.3194-6.358,4.8856-12.8008,3.7155-9.1993,4.2373-10.4051,2.3496-10.5662v-.5144c.9665.0376,2.4804.0376,3.8076.0376,1.3595,0,2.5644,0,3.1635-.0376v.5144c-1.2821.1225-1.804,1.3283-6.082,11.6487l-8.0084,19.5271Z" style="fill:#fff;"/><path d="M168.0974,205.9008c0-10.2817,0-11.5262-1.4818-11.6487v-.5144c1.4818,0,4.2844.0376,7.525.0376,3.2022,0,6.604-.0376,8.7236-.0376-.0858,1.6742-.161,3.3557-.161,5.0836h-.4854c-.1997-1.6441-1.3595-1.935-4.1234-1.935h-6.2432v10.5662h5.4915c2.8413,0,3.7152-.0238,4.0009-.9912h.4361c-.0365.8825-.0365,1.674-.0365,2.5191,0,.9212,0,1.804.0365,2.8026h-.4361c-.247-1.1211-1.0824-1.2058-3.885-1.2058h-5.6074v10.2516c0,.8363.0473.9212.8076.9514h6.9647c1.8728,0,2.955-.1524,3.2793-1.7578h.4832c-.0858,1.4431-.161,3.2783-.161,5.0059-2.4032,0-5.6439-.0374-8.6464-.0374-3.4791,0-6.5651.0374-8.0406.0374v-.5219c1.5592-.1223,1.5592-1.3593,1.5592-12.3625v-6.2432Z" style="fill:#fff;"/><path d="M201.0008,205.9008c0-10.2817,0-11.5262-1.6364-11.61v-.4768c1.0307,0,1.9199-.0387,3.1569-.0387,1.0824-.0376,2.7188-.1223,3.7626-.1223,2.0425,0,3.9624.2384,5.528.8374,2.3582.844,5.1607,3.2398,5.1607,7.84,0,3.8549-2.0423,6.2119-3.724,7.4103-.8911.6444-1.9199,1.1585-2.8413,1.4431v.0774c.8827,1.2359,1.7589,2.4417,7.6411,10.3666,1.0824,1.4431,2.3645,2.7564,3.3632,2.8787v.5219c-.8374,0-1.6815-.0374-2.6801-.0374-.7215,0-1.1211.0374-1.7976.0374-.5219,0-1.0437-.1986-1.4431-.5603-2.5191-3.6004-5.2058-7.4866-8.8461-12.6011h-2.0036v1.674c0,9.6063,0,10.8433,1.5655,10.9656v.5219c-.9278,0-2.0423-.0374-3.3245-.0374-1.4347,0-2.487.0374-3.5178.0374v-.5219c1.6364-.1223,1.6364-1.3593,1.6364-12.3625v-6.2432ZM213.1263,202.5376c0-3.5241-2.3581-5.7213-6.4041-5.7213-.7602,0-1.6817.0387-2.081.0699v12.0168c.4444.0312.9212.0312,1.5655.0312,1.4367,0,2.7962-.3147,3.8786-.9137,1.559-.8838,3.041-2.6029,3.041-5.4442v-.0387Z" style="fill:#fff;"/><path d="M248.8796,217.1048c0,4.3607-3.3632,8.2855-9.645,8.2855-2.0811,0-4.3618-.4768-5.6439-1.0061.1225-1.7589.1612-3.2794.1999-5.3142h.5133c.2083,1.1209.7301,1.8812,1.4904,2.3579.8374.5144,2.081.7602,3.4403.7602,3.2022,0,5.7191-1.8812,5.7191-4.9298,0-1.8361-.7216-3.3179-2.5557-4.8386-1.2907-1.0437-2.489-1.9273-3.9237-3.0786-2.8413-2.242-4.3231-4.4465-4.3231-7.6788,0-4.4078,3.4857-8.1243,9.1597-8.1243,1.6814,0,3.3717.276,4.4841.6292-.0752,1.7279-.161,3.2945-.1997,5.1297h-.4746c-.1612-1.0063-.638-1.6043-1.2821-2.0039-.5993-.3156-1.5205-.568-2.4419-.568-3.0797,0-5.369,1.8117-5.369,4.6914,0,1.643.685,2.9638,1.9201,4.1159,1.091,1.0899,2.4116,2.0036,4.1705,3.4019,2.7555,2.1272,4.7614,4.3693,4.7614,8.1318v.0387Z" style="fill:#fff;"/><path d="M272.0008,212.1439c0,11.0032,0,12.1628,1.804,12.3625v.5219c-1.0072,0-2.2807-.0374-3.6939-.0374-1.5506,0-2.719.0374-3.593.0374v-.5219c1.7202-.1997,1.7202-1.3593,1.7202-12.324v-6.2816c0-10.2817,0-11.4413-1.6837-11.61v-.5531c.8847,0,2.0811.0376,3.5178.0376,1.3294,0,2.6889-.0376,3.5327-.0376v.5144c-1.6041.2074-1.6041,1.3283-1.6041,11.6487v6.2432Z" style="fill:#fff;"/><path d="M299.8423,196.855h-6.0798c-2.2057,0-2.9273.3534-3.2882,2.0811h-.5133v-5.1983c3.2022.0376,7.0786.0376,10.0057.0376h3.4406c3.2321,0,7.1171,0,9.9971-.0376v5.1983h-.5155c-.3521-1.7277-1.166-2.0811-3.2406-2.0811h-6.0886v15.2889c0,11.0419,0,12.2864,1.8042,12.3625v.5219c-.9989-.0374-2.2724-.0374-3.6403-.0374-1.4433,0-2.8026,0-3.6768.0374v-.5219c1.7954-.161,1.7954-1.3206,1.7954-12.3625v-15.2889Z" style="fill:#fff;"/><path d="M341.9397,212.3361v1.4044c0,9.3303-.0387,10.605,1.804,10.7659v.5219c-.9599-.0374-2.242-.0374-3.6015-.0374-1.6043,0-3.0109,0-3.724.0374v-.5219c1.7589-.161,1.7589-1.4356,1.7589-10.7272v-1.1596l-3.4791-6.6416c-5.5988-10.4899-6.0819-11.5647-7.364-11.7259v-.5144c.4767,0,1.7652.0376,3.2406.0376,1.4046,0,2.8413-.0376,4.0012-.0376v.5144c-1.8363.1612-1.1985,1.367,2.0036,7.6016,1.7202,3.2481,2.7639,5.283,3.5628,6.9271h.0774c.7667-1.6441,1.804-3.6015,3.5241-6.8886,3.2794-6.2429,3.8786-7.5176,2.1198-7.6401v-.5144c1.2434.0376,2.4868.0376,3.8463.0376,1.3894,0,2.3194,0,2.9572-.0376v.5144c-1.1209.1612-1.5976,1.1972-7.3254,11.7635l-3.4019,6.3206Z" style="fill:#fff;"/><path d="M177.9098,109.2702l-.7044-.4143c-.3844-.2309-38.687-23.4669-38.687-78.3242V0h78.8386v30.2319c.2083,56.5625-38.3413,78.4318-38.7235,78.6389l-.7237.3994ZM141.4048,2.8875v27.6442c0,27.7737,10.1216,46.9015,18.6068,58.0593,7.7487,10.1818,15.5873,15.7646,17.9455,17.3238,2.3731-1.4743,10.2355-6.8037,17.9904-16.8395,8.509-11.0118,18.6219-30.1319,18.5232-58.6898V2.8875h-73.0658Z" style="fill:#fff;"/><path d="M194.79,27.8052c-5.3842-7.072-4.4713-10.2817-4.4713-10.2817,0,0-2.8565,5.106-4.291,9.3528-1.7503,5.1759,1.7116,10.504,1.7116,10.504l5.8909,8.5389c2.2807,3.5714-3.348,11.8644-3.348,11.8644l-12.2092-28.4266c-4.9544-11.5425-1.9909-15.8957-1.9909-15.8957-10.0959,10.65-8.7535,17.3614-7.2095,22.0539,0,0,2.2271,5.5053,5.0684,12.5472l-3.9172,10.1818-7.8624-18.7055c-2.734-7.1032.2083-11.8646.2083-11.8646-12.686,11.0892-7.9957,22.4845-5.5902,28.3121,5.3969,13.1164,8.9749,21.4395,9.821,23.7128.1762.4917.3371.8988.3371.8988h2.4118c.2063-.0387.3673-.1385.4919-.3233.1223-.1762.9041-2.7415.9041-2.7415l6.3978-21.5308c4.1619,10.3204,9.3442,23.0587,9.6835,23.9351.161.422.2597.6604.2597.6604h2.3731c.1311-.0312.2685-.0924.4297-.292.1845-.2536,1.0285-2.7951,1.0285-2.7951l9.3616-27.0524c4.585-11.9332-1.1447-16.9403-5.4893-22.653Z" style="fill:#fff;"/></g></g></svg>