
<svg xmlns="http://www.w3.org/2000/svg" version="1.1" xmlns:xlink="http://www.w3.org/1999/xlink" preserveAspectRatio="none" x="0px" y="0px" width="100px" height="100px" viewBox="0 0 100 100">
<defs>
<g id="Layer0_0_FILL">
<path fill="#FFFFFF" stroke="none" d="
M 100 20
Q 100 11.75 94.15 5.9 88.25 0 80 0
L 20 0
Q 11.7 0 5.85 5.9 0 11.75 0 20
L 0 80
Q 0 88.3 5.85 94.15 11.7 100 20 100
L 80 100
Q 88.25 100 94.15 94.15 100 88.3 100 80
L 100 20 Z"/>
</g>

<g id="Layer0_1_FILL">
<path fill="#462763" stroke="none" d="
M 87 24.2
Q 84.5 21.9 81.2 21.55 62 20.35 49.95 20.35 37.95 20.35 18.75 21.55 15.45 21.85 12.95 24.15 10.4 26.5 9.75 29.9 8.35 39.55 8.35 49.75 8.35 59.95 9.75 69.6 10.4 73.05 12.95 75.55 15.5 78.05 18.75 78.35 38.8 79.7 49.95 79.7 61.2 79.7 81.2 78.45 84.45 78.1 87 75.55 89.5 73 90.15 69.6 91.65 59.7 91.65 49.75 91.65 39.8 90.15 29.95 89.5 26.55 87 24.2
M 63.05 49.6
L 40.55 61.7 40.55 37.5 63.05 49.6 Z"/>
</g>
</defs>

<g transform="matrix( 1, 0, 0, 1, 0,0) ">
<use xlink:href="#Layer0_0_FILL"/>
</g>

<g transform="matrix( 1, 0, 0, 1, 0,0) ">
<use xlink:href="#Layer0_1_FILL"/>
</g>
</svg>
